<?xml version="1.0" standalone="no"?>
<!DOCTYPE svg PUBLIC "-//W3C//DTD SVG 20010904//EN"
 "http://www.w3.org/TR/2001/REC-SVG-20010904/DTD/svg10.dtd">
<svg version="1.0" xmlns="http://www.w3.org/2000/svg"
 width="1024.000000pt" height="1024.000000pt" viewBox="0 0 1024.000000 1024.000000"
 preserveAspectRatio="xMidYMid meet">

<g transform="translate(0.000000,1024.000000) scale(0.100000,-0.100000)"
fill="#000000" stroke="none">
<path d="M4950 8773 c-25 -2 -111 -15 -191 -28 -564 -94 -1030 -382 -1387
-858 -244 -324 -383 -712 -417 -1162 -7 -90 8 -310 31 -460 43 -279 163 -605
303 -818 28 -43 51 -81 50 -85 0 -4 -39 -34 -87 -67 -105 -71 -255 -220 -299
-295 -54 -92 -110 -270 -85 -270 5 0 19 22 30 49 29 70 94 163 158 226 115
113 274 209 637 385 141 68 237 121 237 129 0 17 -200 399 -304 579 -42 73
-76 139 -76 147 0 33 398 275 453 275 7 0 22 6 32 14 18 13 18 15 1 76 -14 48
-17 90 -15 169 l4 105 -175 48 c-342 95 -484 200 -390 288 61 57 290 133 543
180 91 18 128 29 132 40 2 8 18 94 35 190 94 527 121 620 202 696 61 58 114
78 203 78 93 0 131 -8 355 -76 193 -59 190 -59 395 7 199 64 297 81 386 66
159 -26 229 -105 284 -320 20 -80 79 -389 120 -628 5 -30 8 -32 78 -43 227
-37 379 -78 507 -137 135 -62 160 -109 94 -176 -63 -63 -198 -120 -429 -182
-113 -30 -120 -33 -118 -56 9 -104 5 -181 -12 -246 -10 -40 -17 -74 -14 -76 2
-2 51 -25 109 -52 110 -50 228 -123 318 -194 l53 -42 -24 -42 c-163 -287 -367
-672 -367 -693 0 -7 30 -25 67 -40 137 -59 521 -253 608 -308 181 -114 295
-229 363 -365 41 -83 51 -75 27 20 -30 115 -121 266 -212 350 -36 34 -168 134
-222 170 l-24 15 55 91 c471 761 454 1686 -45 2392 -224 317 -490 544 -831
712 -353 173 -765 253 -1146 222z"/>
<path d="M4729 8121 c21 -38 113 -110 167 -130 38 -15 79 -21 133 -21 72 0
174 21 185 38 2 4 -46 7 -107 7 -96 1 -123 4 -186 27 -41 15 -100 43 -132 63
-65 40 -74 42 -60 16z"/>
<path d="M4251 7356 c-6 -25 -11 -69 -11 -100 0 -49 3 -57 33 -82 65 -55 240
-109 437 -135 151 -21 545 -18 654 4 98 20 223 57 288 87 l42 19 -143 -1 c-78
0 -145 2 -147 5 -3 2 35 17 83 32 209 65 465 163 478 184 9 15 -8 14 -103 -9
-447 -107 -1025 -101 -1494 16 -53 13 -99 24 -101 24 -3 0 -10 -20 -16 -44z"/>
<path d="M4205 6660 c-10 -30 3 -167 25 -277 20 -94 66 -220 105 -283 12 -19
43 -91 69 -160 52 -140 86 -196 192 -320 186 -219 334 -322 488 -340 90 -10
96 -3 96 98 0 93 -22 135 -92 181 l-50 33 82 33 c88 35 121 59 105 74 -6 5
-86 13 -180 16 -93 4 -176 11 -184 15 -10 5 2 12 35 23 71 22 214 74 220 80 3
3 -12 31 -33 62 -60 91 -78 123 -70 131 3 4 42 -3 86 -16 44 -12 88 -20 97
-16 15 6 16 29 11 259 -3 138 -10 270 -14 292 l-8 40 -71 3 -71 3 -21 -105
c-25 -131 -45 -172 -100 -211 l-44 -30 -161 0 c-242 0 -304 21 -350 117 -15
32 -44 189 -49 273 l-3 40 -52 3 c-45 3 -52 0 -58 -18z"/>
<path d="M4426 6624 c12 -52 23 -74 39 -80 15 -6 145 64 145 77 0 11 -27 17
-113 25 l-78 6 7 -28z"/>
<path d="M5440 6625 c-41 -7 -76 -13 -78 -14 -4 -2 28 -75 38 -85 15 -15 180
85 180 109 0 8 -58 3 -140 -10z"/>
<path d="M5390 6215 c0 -18 66 -88 106 -111 84 -49 167 -29 254 61 l45 48 -35
-7 c-159 -30 -190 -29 -344 10 -14 3 -26 3 -26 -1z"/>
<path d="M3710 6105 c8 -10 69 -68 135 -128 380 -348 632 -623 784 -856 62
-94 69 -111 51 -111 -6 0 -56 -31 -113 -68 -56 -38 -130 -86 -164 -108 -35
-21 -63 -43 -63 -48 0 -10 147 -188 295 -355 133 -152 145 -165 145 -156 0 15
-113 220 -168 305 -70 108 -112 179 -112 189 0 14 265 132 329 146 18 4 35 13
38 21 16 41 -123 261 -293 464 -198 236 -596 569 -839 701 -34 19 -38 19 -25
4z"/>
<path d="M5904 5588 c-92 -84 -235 -261 -353 -438 -160 -237 -259 -446 -335
-707 -20 -67 -36 -125 -36 -129 0 -20 46 57 86 142 43 94 149 289 262 484 80
137 194 317 368 580 37 55 64 103 61 106 -3 3 -27 -14 -53 -38z"/>
<path d="M4225 3994 c-73 -19 -121 -40 -152 -67 -78 -69 -115 -211 -76 -298
42 -94 98 -137 256 -195 108 -41 137 -64 137 -111 0 -86 -151 -103 -292 -32
-32 16 -61 29 -65 29 -7 0 -60 -126 -71 -167 -7 -26 139 -81 259 -97 96 -14
244 29 307 87 45 41 74 104 79 170 7 81 -10 139 -54 188 -46 51 -96 80 -212
123 -132 49 -165 87 -126 143 34 49 133 48 243 -2 30 -14 58 -25 63 -25 4 0
20 39 34 86 31 103 31 103 -71 141 -68 24 -211 39 -259 27z"/>
<path d="M7643 3985 c-215 -60 -333 -224 -333 -460 0 -158 41 -265 137 -356
129 -122 331 -150 498 -69 149 72 235 197 255 370 26 229 -95 436 -295 504
-71 24 -198 30 -262 11z m239 -223 c71 -49 103 -121 103 -232 0 -178 -84 -283
-225 -283 -148 0 -233 99 -234 273 -1 75 3 93 31 152 26 55 41 74 80 99 44 28
53 30 123 27 65 -3 81 -7 122 -36z"/>
<path d="M2279 3976 c-2 -2 -3 -207 -1 -455 l2 -451 100 0 100 0 0 171 0 170
43 -3 c37 -3 44 -7 60 -39 10 -20 51 -95 91 -165 l74 -129 116 -3 c64 -1 116
1 116 6 0 4 -21 41 -46 82 -25 41 -73 120 -107 174 l-60 100 24 15 c96 64 132
130 133 247 1 70 -3 87 -29 140 -36 70 -97 116 -175 133 -47 10 -432 16 -441
7z m363 -187 c44 -12 68 -49 68 -104 0 -77 -41 -105 -155 -105 l-75 0 0 110 0
110 63 0 c34 0 79 -5 99 -11z"/>
<path d="M3357 3973 c-6 -10 -130 -341 -167 -448 -24 -67 -118 -316 -159 -418
-14 -37 -8 -38 119 -35 l103 3 31 92 31 93 155 0 156 0 30 -92 30 -93 112 -3
c102 -2 112 -1 112 15 -1 10 -74 214 -164 453 l-163 435 -111 3 c-61 1 -113
-1 -115 -5z m163 -401 c23 -73 40 -135 37 -138 -2 -3 -45 -3 -94 -2 l-89 3 45
142 c25 79 48 140 52 135 4 -4 26 -67 49 -140z"/>
<path d="M4670 3884 l0 -96 120 6 120 5 2 -362 3 -362 100 0 100 0 3 358 c2
331 4 357 20 357 9 1 62 2 117 3 l100 2 3 93 3 92 -346 0 -345 0 0 -96z"/>
<path d="M5462 3528 l3 -453 98 -3 97 -3 0 171 0 170 40 0 c44 0 31 17 150
-200 35 -63 70 -121 78 -127 18 -15 217 -19 226 -5 6 9 -36 82 -139 241 l-73
115 26 14 c40 20 91 72 115 117 18 33 22 57 22 136 0 89 -2 99 -30 145 -37 59
-107 108 -175 123 -28 6 -139 11 -246 11 l-194 0 2 -452z m405 240 c21 -22 27
-37 27 -77 1 -42 -3 -55 -27 -78 -25 -26 -35 -28 -117 -31 l-90 -4 0 112 0
112 90 -4 c82 -3 92 -5 117 -30z"/>
<path d="M6270 3525 l0 -455 285 0 285 0 0 95 0 95 -180 0 -180 0 0 90 0 90
160 0 160 0 0 95 0 95 -160 0 -160 0 0 80 0 80 178 2 177 3 3 93 3 92 -286 0
-285 0 0 -455z"/>
<path d="M6972 3528 l3 -453 103 -3 102 -3 0 456 0 455 -105 0 -105 0 2 -452z"/>
<path d="M4855 2757 c-61 -20 -102 -44 -147 -85 -175 -158 -168 -457 14 -604
85 -70 162 -93 281 -86 76 5 189 36 210 57 9 9 -28 136 -42 146 -5 2 -33 -4
-64 -15 -73 -26 -168 -26 -224 0 -158 71 -140 366 25 421 54 18 153 6 208 -25
26 -14 48 -25 49 -24 11 14 46 142 41 154 -3 8 -32 27 -63 41 -70 31 -222 42
-288 20z"/>
<path d="M7538 2746 c-158 -65 -247 -216 -235 -400 15 -234 172 -376 401 -364
213 12 366 182 366 407 0 112 -68 246 -158 312 -97 71 -262 91 -374 45z m195
-147 c124 -34 186 -209 123 -345 -36 -78 -73 -99 -173 -99 -76 0 -84 2 -120
31 -49 40 -72 99 -72 189 -1 162 107 262 242 224z"/>
<path d="M2280 2380 l0 -380 90 0 90 0 0 120 0 120 90 0 c96 0 150 15 207 57
118 87 123 301 10 398 -63 54 -114 65 -314 65 l-173 0 0 -380z m356 187 c26
-30 32 -84 13 -119 -15 -28 -70 -48 -134 -48 l-55 0 0 101 0 101 76 -4 c69 -3
79 -6 100 -31z"/>
<path d="M3185 2748 c-55 -153 -184 -501 -218 -588 -70 -180 -75 -160 40 -160
l99 0 23 75 24 76 130 -3 130 -3 25 -72 24 -73 99 0 c56 0 99 4 99 9 0 6 -56
160 -124 343 -68 183 -129 350 -135 371 l-13 37 -99 0 c-71 0 -101 -4 -104
-12z m180 -438 c4 -6 -25 -10 -77 -10 l-84 0 40 119 40 119 38 -109 c20 -60
40 -114 43 -119z"/>
<path d="M3830 2380 l0 -380 90 0 90 0 0 140 0 140 23 0 c32 0 42 -14 122
-157 l68 -122 101 -3 c56 -2 105 -2 109 0 4 2 1 14 -7 26 -91 139 -169 280
-157 284 31 10 91 76 107 118 24 64 16 178 -18 227 -62 92 -110 107 -344 107
l-184 0 0 -380z m345 195 c44 -43 27 -125 -28 -145 -16 -5 -54 -10 -83 -10
l-54 0 0 90 0 90 70 0 c62 0 74 -3 95 -25z"/>
<path d="M5400 2380 l0 -380 135 0 c74 -1 188 -1 253 -1 l117 0 3 75 3 76
-166 0 -165 0 0 75 0 74 143 3 142 3 2 78 1 77 -144 0 -144 0 0 70 0 70 165 0
165 0 0 80 0 80 -255 0 -255 0 0 -380z"/>
<path d="M6122 2378 l3 -381 90 1 90 1 3 380 2 381 -95 0 -95 0 2 -382z"/>
<path d="M6550 2378 l0 -383 90 3 90 3 0 140 0 139 23 0 c31 0 44 -16 104
-125 28 -49 58 -105 69 -122 l19 -33 103 0 c56 0 102 3 102 6 0 6 -115 198
-150 249 -27 40 -25 46 18 73 50 31 80 76 92 141 18 97 -10 187 -74 236 -60
46 -112 55 -308 55 l-178 0 0 -382z m351 193 c26 -32 24 -84 -5 -118 -21 -24
-32 -28 -95 -31 l-71 -4 0 92 0 92 76 -4 c65 -3 79 -7 95 -27z"/>
</g>
</svg>
